<svg xmlns="http://www.w3.org/2000/svg" xmlns:xlink="http://www.w3.org/1999/xlink" width="429.488" height="315.966" viewBox="0 0 429.488 315.966"><defs><style>.a,.b{fill:#dbb2ff;}.a,.ac{opacity:0.24;isolation:isolate;}.aa,.ab,.c,.d,.i,.k,.r,.s,.t,.u,.v,.w,.x,.y,.z{opacity:0.26;}.c{fill:url(#a);}.d{fill:url(#b);}.e{fill:url(#c);}.f{fill:url(#d);}.g{fill:url(#e);}.h{fill:#fff;}.i{fill:url(#f);}.j{fill:url(#g);}.k{fill:url(#h);}.l{fill:url(#i);}.m{fill:url(#j);}.n{fill:url(#k);}.o{fill:url(#l);}.p{fill:url(#m);}.q{fill:url(#n);}.r{fill:url(#o);}.s{fill:url(#p);}.t{fill:url(#q);}.u{fill:url(#r);}.v{fill:url(#s);}.w{fill:url(#t);}.x{fill:url(#u);}.y{fill:url(#v);}.z{fill:url(#w);}.aa{fill:url(#x);}.ab{fill:url(#y);}</style><linearGradient id="a" y1="0.5" x2="1" y2="0.5" gradientUnits="objectBoundingBox"><stop offset="0" stop-color="#010101" stop-opacity="0"/><stop offset="0.95" stop-color="#010101"/></linearGradient><linearGradient id="b" x1="0.51" y1="-0.013" x2="0.462" y2="2.094" xlink:href="#a"/><linearGradient id="c" x1="0.65" y1="0.519" x2="1.998" y2="0.692" xlink:href="#a"/><linearGradient id="d" x1="1.04" y1="-0.088" x2="0.123" y2="1.198" xlink:href="#a"/><linearGradient id="e" x1="0.171" y1="1.684" x2="0.694" y2="-0.2" gradientUnits="objectBoundingBox"><stop offset="0" stop-color="#fff" stop-opacity="0"/><stop offset="0.95" stop-color="#fff"/></linearGradient><linearGradient id="f" x1="0" y1="0.5" x2="1" y2="0.5" xlink:href="#a"/><linearGradient id="g" x1="0.001" y1="0.5" x2="1.001" y2="0.5" gradientUnits="objectBoundingBox"><stop offset="0" stop-color="#e5c6d6"/><stop offset="0.42" stop-color="#ead4d0"/><stop offset="1" stop-color="#f0e9cb"/></linearGradient><linearGradient id="h" x1="0.315" y1="-0.1" x2="0.884" y2="1.715" xlink:href="#a"/><linearGradient id="i" x1="0" y1="0.5" x2="1" y2="0.5" xlink:href="#g"/><linearGradient id="j" x1="0.388" y1="0.518" x2="1.485" y2="0.259" xlink:href="#a"/><linearGradient id="k" x1="0.872" y1="0.426" x2="-3.031" y2="1.334" xlink:href="#a"/><linearGradient id="l" x1="-12.142" y1="52.589" x2="-9.339" y2="50.544" xlink:href="#a"/><linearGradient id="m" x1="0.412" y1="0.456" x2="1.571" y2="0.618" xlink:href="#g"/><linearGradient id="n" x1="1.032" y1="1.218" x2="-0.37" y2="-0.833" xlink:href="#a"/><linearGradient id="o" x1="0.503" y1="0.953" x2="0.483" y2="-0.619" xlink:href="#a"/><linearGradient id="p" x1="0.379" y1="0.238" x2="1.002" y2="1.382" xlink:href="#a"/><linearGradient id="q" x1="0" y1="0.5" x2="1" y2="0.5" xlink:href="#a"/><linearGradient id="r" x1="-0.109" y1="0.561" x2="0.985" y2="0.561" xlink:href="#a"/><linearGradient id="s" x1="0.199" y1="-0.688" x2="0.791" y2="1.854" xlink:href="#a"/><linearGradient id="t" x1="0.563" y1="-3.496" x2="1.178" y2="-1.849" xlink:href="#a"/><linearGradient id="u" x1="-2.277" y1="0.193" x2="0.785" y2="0.193" xlink:href="#a"/><linearGradient id="v" x1="0.914" y1="-0.498" x2="3.216" y2="-0.498" xlink:href="#a"/><linearGradient id="w" x1="2.159" y1="-1.271" x2="3.584" y2="-0.036" xlink:href="#a"/><linearGradient id="x" x1="14.738" y1="-5.359" x2="16.855" y2="-4.749" xlink:href="#a"/><linearGradient id="y" x1="1.818" y1="-39.311" x2="2.269" y2="-39.311" xlink:href="#a"/></defs><g transform="translate(0.008 0.003)"><path class="a" d="M431.813,214.334c-1.434,20.526-7.045,42.347-23.555,55.965-14.056,11.605-33.5,15.221-50.207,23.179-15.186,7.263-28.854,18.347-43.407,26.645-1.544.9-3.122,1.753-4.7,2.582-8.724,4.524-17.861,7.808-27.942,8.5a69.739,69.739,0,0,1-12.9-.387c-.683-.079-1.35-.158-2.042-.284-5.214-.671-10.377-1.705-15.549-2.684a706.061,706.061,0,0,0-72.294-10.026c-2.59-.26-5.214-.466-7.812-.679-1.105-.1-2.185-.174-3.282-.253-12.461-.908-25.715-.521-38.64-1.453q-2.388-.15-4.8-.387a102,102,0,0,1-17.894-3.158c-33.747-9.434-63.276-48.221-81.381-74.21C9.09,214.168-3.506,185.123,6,158.534c7.239-20.155,25.631-34.626,40.682-50.526,23.623-24.963,41-56.052,70.936-74.115,38.041-23.005,87.143-19.7,132.238-15.537,18.088,1.658,36.81,3.513,52.409,12.2C320.3,40.579,331.6,58.184,345.049,73.295c27.09,30.41,65.883,53.51,80.47,90.671C431.813,179.96,432.969,197.352,431.813,214.334Z" transform="translate(-2.73 -15.38)"/><path class="a" d="M388.883,267.884c-1.1,18.856-5.426,38.87-18.157,51.36-10.844,10.649-25.8,13.971-38.7,21.271-11.731,6.671-22.253,16.845-33.476,24.45-1.185.835-2.419,1.616-3.612,2.37-6.732,4.157-13.779,7.183-21.551,7.8a45,45,0,0,1-9.949-.35c-.532-.072-1.04-.144-1.572-.26-4.031-.62-8.006-1.571-11.989-2.469a465.1,465.1,0,0,0-55.744-9.2c-2-.234-4.031-.422-6.031-.611-.847-.1-1.677-.171-2.532-.242-9.6-.826-19.826-.476-29.791-1.329q-1.854-.135-3.7-.35a67.943,67.943,0,0,1-13.8-2.918c-26.01-8.656-48.827-44.249-62.767-68.079-12.578-21.55-22.293-48.235-14.948-72.64,5.579-18.515,19.761-31.777,31.371-46.35,18.205-22.906,31.621-51.414,54.7-68.007,29.348-21.11,67.185-18.075,101.959-14.259,13.94,1.526,28.38,3.232,40.409,11.2,13.908,9.2,22.615,25.375,32.984,39.22C342.87,166.4,372.774,187.6,384.062,221.7,388.883,236.34,389.778,252.305,388.883,267.884Z" transform="translate(-2.73 -66.674)"/><path class="b" d="M90.82,128.31s1,6.68,2.07,8.75,13.71,22.35,15.55,22.58,64.17-30.87,64.17-30.87l1.27-4.61Z" transform="translate(-19.187 -40.51)"/><path class="c" d="M90.82,128.31s1,6.68,2.07,8.75,13.71,22.35,15.55,22.58,64.17-30.87,64.17-30.87l1.27-4.61Z" transform="translate(-19.187 -40.51)"/><path class="b" d="M64,218.85s4.84-8.75,6.68-11.29,31.79-15.43,31.79-15.43-11.29,13.13-13.36,14.05S64,218.85,64,218.85Z" transform="translate(-2.73 -55.254)"/><path class="d" d="M372.47,304.34c-1.83,7.36-.92,17.51-.92,17.51l.89,79.54c-1.83,1.14-3.7,2.22-5.57,3.27-10.34,5.73-21.17,9.89-33.12,10.77a80.414,80.414,0,0,1-17.67-.81h0v-67a14.67,14.67,0,0,0-11.42-14.32c-21.89-5-67.92-15.26-71.75-14.91-5.07.46-13.39,12-18.46,18.43S211,348.56,211,348.56l.95,49.92c-3.07-.33-6.18-.59-9.26-.86-1.31-.13-2.59-.22-3.89-.32-14.77-1.15-30.48-.66-45.8-1.84l-3.53-38.59,2-14.2s-.1-18.07-2.42-25.43-.92-10.61-.92-15.68,43.8-21.18,43.8-21.18L188.62,267s-34.57,9.23-40.1,8.32-2.29-9.69-2.29-9.69l52.54-49.75,11.06,39.6s-4.16,18,1.37,26.74,12.9,2.29,15.19-.45,10.08-7.27,10.08-7.27l26.35-93.65s72.8-3.24,86.08-3.73,16.21,9.72,16.66,11.56-7.82,27.66-9.68,42.38,6,18,6,18C381.24,267.45,374.34,296.94,372.47,304.34Z" transform="translate(-43.372 -99.64)"/><rect class="b" width="114.89" height="163.61" rx="9.91" transform="translate(200.68 81.104) rotate(11.5)"/><rect class="e" width="114.89" height="163.61" rx="9.91" transform="translate(200.68 81.104) rotate(11.5)"/><rect class="b" width="114.89" height="163.61" rx="9.91" transform="translate(198.884 80.259) rotate(11.5)"/><path class="b" d="M12.57,0H34.7A12.54,12.54,0,0,1,47.24,12.54v4.31H0v-4.3A12.54,12.54,0,0,1,12.57,0Z" transform="translate(232.777 101.706) rotate(11.5)"/><path class="f" d="M12.57,0H34.7A12.54,12.54,0,0,1,47.24,12.54v4.31H0v-4.3A12.54,12.54,0,0,1,12.57,0Z" transform="translate(232.777 101.706) rotate(11.5)"/><path class="g" d="M316.6,303.55l-91.19-18.54,29.57-141.84,91.19,18.55Z" transform="translate(-46.198 -50.298)"/><path class="h" d="M12.54,0H34.67A12.54,12.54,0,0,1,47.21,12.54v4.35H0V12.54A12.54,12.54,0,0,1,12.54,0Z" transform="translate(231.344 101.441) rotate(11.5)"/><path class="b" d="M343.57,189l-83.32-16.95,1.28-6.3,83.32,16.94Zm-81.42-18.2,80.16,16.3L343,184l-80.16-16.3Z" transform="translate(-51.012 -48.991)"/><path class="b" d="M334.45,233.82l-83.32-16.94,7.62-37.45,83.32,16.94ZM253,215.62l80.16,16.3,7-34.29L260,181.32Z" transform="translate(-50.008 -55.35)"/><path class="b" d="M339.76,207.74,256.44,190.8l2.31-11.37,83.32,16.94Zm-81.42-18.2,80.16,16.3,1.67-8.21L260,181.32Z" transform="translate(-50.414 -52.547)"/><path class="b" d="M287.65,223.53l-19.48-4,7.47-36.71,19.48,4Zm-17.58-4.14,16.32,3.32,6.83-34.63-16.32-3.32Z" transform="translate(-46.546 -54.624)"/><path class="b" d="M320.42,230.19l-19.49-4,7.47-36.71,19.48,4ZM302.84,225l16.32,3.32L326,194.74l-16.32-3.32Z" transform="translate(-51.954 -56.185)"/><path class="b" d="M328.41,254.86l-82.3-16.74,1.76-8.67,82.31,16.73Zm-80.4-18L327.16,253l1.12-5.52-79.15-16.09Z" transform="translate(-48.304 -63.504)"/><path class="b" d="M329.19,266.62l-88.05-17.91,1.42-7,88.05,17.91ZM243,247.46l84.89,17.26.78-3.82-84.89-17.27Z" transform="translate(-47.948 -66.193)"/><path class="b" d="M257.53,261,240,257.39l1.13-5.52,17.56,3.57Zm-15.67-4.83,14.41,2.93.48-2.36-14.4-2.93Z" transform="translate(-41.236 -66.331)"/><rect class="b" width="61.12" height="0.92" transform="translate(212.049 190.858) rotate(11.5)"/><path class="b" d="M255.79,269.51l-17.57-3.57,1.13-5.52L256.91,264Zm-15.67-4.83,14.41,2.94.48-2.37-14.4-2.93Z" transform="translate(-40.948 -68.168)"/><rect class="b" width="61.12" height="0.92" transform="translate(210.616 197.556) rotate(11.5)"/><path class="b" d="M254.05,278.07l-17.57-3.57,1.13-5.52,17.56,3.57Zm-15.67-4.83,14.41,2.93.48-2.36-14.4-2.93Z" transform="translate(-40.665 -70.012)"/><rect class="b" width="61.12" height="0.92" transform="translate(209.183 204.254) rotate(11.5)"/><path class="i" d="M317.4,243.33c-.73,3.52-4.42,5.61-5.95,8.86a15.87,15.87,0,0,0-1.07,6.09L308.43,304c-.23,5.23-.43,10.61,1.31,15.55s5.89,9.39,11.1,9.87a7.65,7.65,0,0,0,4.67-1c3.07-1.89,3.76-6,4.1-9.55,2.19-23.11,1.95-46.38,1.22-69.58A21.729,21.729,0,0,0,330,243c-1.14-3.28-5.12-8.28-8.57-9.39C315.38,231.62,318,240.21,317.4,243.33Z" transform="translate(-52.764 -75.771)"/><rect class="b" width="72.04" height="92.03" rx="7.31" transform="translate(99.102 121.772) rotate(-11)"/><rect class="b" width="76.06" height="36.08" rx="5.87" transform="translate(96.498 124.868) rotate(-11)"/><rect class="h" width="67.56" height="19.99" rx="3.9" transform="translate(101.545 130.207) rotate(-11)"/><rect class="h" width="14.35" height="10.68" rx="2.02" transform="translate(112.511 155.658) rotate(-11)"/><rect class="h" width="14.35" height="10.68" rx="2.02" transform="translate(125.684 153.271) rotate(-11)"/><rect class="h" width="14.35" height="10.68" rx="2.02" transform="translate(138.856 150.876) rotate(-11)"/><rect class="h" width="14.35" height="10.68" rx="2.02" transform="translate(114.526 165.315) rotate(-11)"/><rect class="h" width="14.35" height="10.68" rx="2.02" transform="translate(127.699 162.928) rotate(-11)"/><rect class="h" width="14.35" height="10.68" rx="2.02" transform="translate(140.871 160.541) rotate(-11)"/><rect class="h" width="14.35" height="10.68" rx="2.02" transform="translate(116.532 174.981) rotate(-11)"/><rect class="h" width="14.35" height="10.68" rx="2.02" transform="translate(129.714 172.593) rotate(-11)"/><rect class="h" width="14.35" height="10.68" rx="2.02" transform="translate(142.885 170.199) rotate(-11)"/><rect class="h" width="14.35" height="10.68" rx="2.02" transform="translate(118.546 184.638) rotate(-11)"/><rect class="h" width="14.35" height="10.68" rx="2.02" transform="translate(131.72 182.251) rotate(-11)"/><rect class="h" width="14.35" height="10.68" rx="2.02" transform="translate(144.9 179.864) rotate(-11)"/><rect class="h" width="14.25" height="8.22" rx="2.02" transform="translate(152.5 148.658) rotate(-11)"/><rect class="h" width="14.25" height="8.26" rx="2.02" transform="translate(153.915 155.47) rotate(-11)"/><rect class="h" width="14.25" height="8.26" rx="2.02" transform="translate(155.381 162.485) rotate(-11)"/><rect class="h" width="14.25" height="8.26" rx="2.02" transform="translate(156.84 169.516) rotate(-11)"/><rect class="h" width="14.25" height="11.79" rx="2.02" transform="translate(158.33 176.447) rotate(-11)"/><path class="j" d="M322.71,240.82c.44,2.55,2.69,4.29,4.85,5.48,5.51,3,11.92,4.7,16.13,9.63A17.19,17.19,0,0,1,346,274c-.47.95-1.16,1.93-2.17,2a3.49,3.49,0,0,1-2.31-1,35.15,35.15,0,0,1-12.14-19.48c-.5-2.19-.85-4.54-2.22-6.26-2.21-2.78-6.49-2.73-9-.49s8.42,53.2,7.12,69.94c-.13,1.64-.28,3.42.53,4.86a5.85,5.85,0,0,0,1.48,1.65c4.48,3.64,10.77,3.52,15.74,1.19s8.9-6.53,12.62-10.74a57.652,57.652,0,0,0,6.93-9.1c5.69-9.83,6-22.56,3.45-34.14-2.05-9.19-5.87-18.12-11.78-25.25a39.29,39.29,0,0,0-17.51-12.42C332.4,233.35,321.37,232.9,322.71,240.82Z" transform="translate(-57.32 -75.545)"/><rect class="h" width="39.12" height="7.72" transform="translate(266.799 239.014)"/><path class="b" d="M366.87,327.32l5.57,74.07c-10.34,5.73-26.74,13.16-38.69,14a77.392,77.392,0,0,1-15.29-.49V327.32Z" transform="translate(-57.943 -99.64)"/><circle class="b" cx="14.13" cy="14.13" r="14.13" transform="translate(309.109 131.861)"/><circle class="b" cx="14.13" cy="14.13" r="14.13" transform="translate(305.37 107.334)"/><path class="b" d="M158.69,95.89a113.41,113.41,0,0,1,15.19,28.27c-16.23,8.29-45.25,22.16-61.69,30a5.27,5.27,0,0,1-3.29.77c-1.3-.27-2.19-1.43-3-2.52q-6.58-9.41-12.6-19.3c-2.48-4.05-4.14-5.08.07-7.81,3.2-2.08,6.65-3.85,10-5.64C117,112.38,144,100.57,158.69,95.89Z" transform="translate(-19.183 -35.265)"/><path class="k" d="M97.27,130.6s3.11-3,3.47-5.88l50.19-23.14s6.21,2.88,8.72,1.92l8,15S166,122,166,124.13l-49.71,24.34s-5.62-.6-8.48-.12Z" transform="translate(-19.882 -35.937)"/><path class="h" d="M152.29,138.06a1.8,1.8,0,0,1-.95.95,38.671,38.671,0,0,1-7.43,3.18,5.48,5.48,0,0,1-2.2.29,1,1,0,0,1-.32-.09c-1.48-.4-2.36-2-3-3.44q-5.265-11.055-10.48-22.1c-.29-.62-.85-1.6-1.44-2.68l-.16-.26a22.681,22.681,0,0,1-2-4.32.6.6,0,0,1-.1-.3.61.61,0,0,1-.09-.26,2.41,2.41,0,0,1,0-1.63c.75-1.61,8.08-3.31,9.75-3.9a3.28,3.28,0,0,1,1.57-.26,2.89,2.89,0,0,1,1.61,1.05c2.84,3,4.48,6.9,6.05,10.73q4.47,11,9,22a1.82,1.82,0,0,1,.19,1.04Z" transform="translate(-22.802 -35.888)"/><path class="b" d="M70.84,214.25c-4.09,1.91-8.68,4.43-9.54,8.87,4.56-1.49,9,2.41,12.16,6L83,239.59a3.41,3.41,0,0,0,1.48,1.13,3.49,3.49,0,0,0,2.22-.37q15-6.15,29.79-12.9c1.28-.58,2.71-1.33,3.08-2.7a4.81,4.81,0,0,0-.49-3c-2.89-7.4-7.62-33.13-18.28-29.09-4.32,1.65-8,7.93-11.44,10.86C83.8,208.17,77.32,211.23,70.84,214.25Z" transform="translate(-18.73 -55.752)"/><path class="b" d="M441.65,305.45a144.78,144.78,0,0,0-42.47-19.21c-1-.28-2.27-.51-3.1.18a3.48,3.48,0,0,0-.91,2.25q-2.06,14.49-4.1,29a4.36,4.36,0,0,0,.14,2.56c.62,1.26,2.21,1.62,3.58,1.89a58.38,58.38,0,0,1,29.82,15.77c3,3,7,6.6,10.83,4.84,3.06-1.4,3.77-5.34,4.09-8.69l2.52-26.9" transform="translate(-78.389 -81.852)"/><path class="l" d="M216.49,281.37c3.14-4.49,8-9,13.33-7.85A3.23,3.23,0,0,1,232,274.8c.71,1.14.13,2.61-.45,3.82l-10.69,22.2a59,59,0,0,1-3.82,7.09c-6.09,9.16-17.1,14.65-21.64,24.66-2.85,6.3-3.18,14.34-8.76,18.42-3,2.22-7,2.68-10.79,2.75a66.877,66.877,0,0,1-9.38-.52,12.81,12.81,0,0,1-5.09-1.48,10,10,0,0,1-4.09-6.5,52.759,52.759,0,0,1-.67-7.86c-.91-13.83-8.31-26.62-9.17-40.46-.32-5.14,1-11.29,5.69-13.32,1.65-.7,3.53-.79,5.1-1.64,1.93-1,3.26-3.12,5.37-3.7s4.6.53,6.57-.49c1.75-.9,2.43-3.16,4.14-4.14,1.87-1.08,4.21-.27,6.36-.25,5.27.06,9.4-4.75,11.09-9.73s1.73-10.39,3.24-15.43c.83-2.74,2.73-5.77,5.58-5.64,2.07.09,3.71,1.94,4.25,3.94a15.35,15.35,0,0,1-.05,6.15,259.648,259.648,0,0,0-2.41,31.27c-.06,3.84.12,10.58,5.44,7.48C211.63,289.17,214,284.92,216.49,281.37Z" transform="translate(-36.876 -88.71)"/><rect class="h" width="46.99" height="8.73" transform="translate(116.072 249.27)"/><path class="b" d="M202.66,350.39v47.23c-1.31-.13-2.59-.22-3.89-.32-16.6-1.28-34.41-.53-51.49-2.33V350.39Z" transform="translate(-35.087 -99.64)"/><path class="b" d="M323.46,231.15a2,2,0,0,0-1.11-.39,1.79,1.79,0,0,0-1.35,1.12c-1.46,2.82-.23,6.23,1,9.16l10.35,24.31c3.28,7.71,6.6,15.48,11.42,22.32a4.57,4.57,0,0,0,2.75,2.21,3.18,3.18,0,0,0,2.22-.61c2-1.33,2.82-3.95,2.66-6.35a22.789,22.789,0,0,0-2-6.89,247.094,247.094,0,0,0-10.25-22.54C335,245.46,331.59,236.1,323.46,231.15Z" transform="translate(-55.61 -68.586)"/><path class="m" d="M323.46,231.15a2,2,0,0,0-1.11-.39,1.79,1.79,0,0,0-1.35,1.12c-1.46,2.82-.23,6.23,1,9.16l10.35,24.31c3.28,7.71,6.6,15.48,11.42,22.32a4.57,4.57,0,0,0,2.75,2.21,3.18,3.18,0,0,0,2.22-.61c2-1.33,2.82-3.95,2.66-6.35a22.789,22.789,0,0,0-2-6.89,247.094,247.094,0,0,0-10.25-22.54C335,245.46,331.59,236.1,323.46,231.15Z" transform="translate(-55.61 -68.586)"/><path class="n" d="M326.59,248.2a31.719,31.719,0,0,0,5.13,5.1c3.83,3.3,7.66,6.84,10,11.54a60.159,60.159,0,0,1,2.36,5.8c.31.81.81,1.76,1.6,1.74.79-1,.5-2.53.15-3.8a78,78,0,0,0-4.41-12.25,114,114,0,0,0-9.32-15.43,28.4,28.4,0,0,0-3.46-4.44,3.54,3.54,0,0,0-2.28-1.23c-1.92,0-3.54,3-3.36,4.92C323.3,242.88,325.07,246.12,326.59,248.2Z" transform="translate(-55.186 -66.402)"/><ellipse class="o" cx="4.47" cy="2.76" rx="4.47" ry="2.76" transform="translate(285.409 213.755) rotate(-40.42)"/><path class="p" d="M333.93,234.44s-7.53-1.15-9.6,1.39-.08,9.75,6.52,12.21a52.291,52.291,0,0,1,11.52,6.06S337.92,236,333.93,234.44Z" transform="translate(-54.809 -63.858)"/><path class="b" d="M345.52,286s1.17-2.43,3.34-2.07l3.34,6.5s.27,5.86-3.7,2Z" transform="translate(-57.031 -73.338)"/><path class="q" d="M345.52,286s1.17-2.43,3.34-2.07l3.34,6.5s.27,5.86-3.7,2Z" transform="translate(-57.031 -73.338)"/><path class="r" d="M88.61,208.63c2.27-1.2,4.6-2.45,6.19-4.46,1.42-1.82,2.12-4.1,3.37-6s3.46-3.62,5.71-3.09a6.83,6.83,0,0,1,3.59,2.86,42.91,42.91,0,0,1,8.22,19.61c-10.19-1.16-20,3.53-29.32,7.89-3.29,1.55-7,3.1-10.46,2-2.44-.78-4.4-2.77-6.17-4.55-2.8-2.79-1.67-3.35,1.53-5Z" transform="translate(-18.642 -54.571)"/><path class="s" d="M140.24,140.17l11.14-4.89a13.7,13.7,0,0,1,.9,3.05c-.12.49-7.32,4.09-9.68,3.83s-3-1.53-3-1.53Z" transform="translate(-24.674 -41.066)"/><path class="t" d="M141.39,142.39c-1.48-.4-2.36-2-3-3.44q-5.265-11.055-10.48-22.1c-.29-.62-.85-1.6-1.44-2.68l-.16-.26c-1.18-2.59-2-4.29-2-4.29h0a1.71,1.71,0,0,0-.1-.3.61.61,0,0,1-.09-.26c-.27-.59-.46-1.44,0-1.63.78-.3,2.58,1.7,2.58,1.7l14,30.67Z" transform="translate(-22.34 -36.61)"/><path class="b" d="M229.45,42s-2.59,6.25-2.78,8.56.07,26.22,1.53,27.37,70.86,7,70.86,7l3.48-3.27Z" transform="translate(-43.866 -15.38)"/><path class="u" d="M229.45,42s-2.59,6.25-2.78,8.56.07,26.22,1.53,27.37,70.86,7,70.86,7l3.48-3.27Z" transform="translate(-43.866 -15.38)"/><path class="b" d="M304.28,49.64a113.68,113.68,0,0,1-1.74,32c-18.18-1.37-50.17-4.63-68.3-6.47A5.32,5.32,0,0,1,231,74.15c-1-.9-1.12-2.36-1.2-3.68q-.75-11.53-.75-23.08c0-4.76-.89-6.5,4.13-6.64,3.81-.11,7.68.18,11.48.39C260.1,42,289.28,46,304.28,49.64Z" transform="translate(-44.282 -15.38)"/><path class="v" d="M233.77,47.31s4.21-.94,6-3.21l54.9,6.35s3.81,5.69,6.45,6.18l-1,17s-3.23,2.1-4.36,3.94L240.7,72.45s-4.49-3.43-7.19-4.51Z" transform="translate(-44.334 -15.38)"/><path class="h" d="M276.86,82.31a1.75,1.75,0,0,1-1.3.32,38.691,38.691,0,0,1-8-1.15,5.73,5.73,0,0,1-2-.89.92.92,0,0,1-.23-.26c-1.06-1.1-1-2.93-.78-4.5.84-8.11,1.71-16.21,2.55-24.32.07-.68.11-1.81.17-3V48.2a22.4,22.4,0,0,1,.55-4.73.45.45,0,0,1,.07-.3.54.54,0,0,1,.05-.27,2.46,2.46,0,0,1,.88-1.38c1.48-1,8.62,1.38,10.35,1.75a3.11,3.11,0,0,1,1.48.59,2.91,2.91,0,0,1,.83,1.73c.88,4,.23,8.23-.42,12.32q-1.89,11.67-3.77,23.42a1.75,1.75,0,0,1-.43.98Z" transform="translate(-45.095 -15.38)"/><path class="w" d="M265.48,77.84l12.06,1.62a13.689,13.689,0,0,1-.82,3.08c-.36.35-8.38-.32-10.26-1.77s-1.76-2.86-1.76-2.86Z" transform="translate(-44.744 -15.343)"/><path class="x" d="M265.31,80.33c-1.06-1.1-1-2.93-.78-4.5.84-8.11,1.71-16.21,2.55-24.32.07-.68.11-1.81.17-3V48.2c.34-2.82.56-4.68.56-4.68h0a.729.729,0,0,1,.07-.3.54.54,0,0,1,.05-.27c.08-.64.36-1.47.88-1.38.82.15,1.32,2.79,1.32,2.79l-4,33.48Z" transform="translate(-44.103 -15.38)"/><path class="b" d="M420.46,224.86s6.49,1.88,8.81,1.82,26.05-3,27-4.54-.83-71.2-.83-71.2l-3.64-3.1Z" transform="translate(-82.311 -50.109)"/><path class="y" d="M420.46,224.86s6.49,1.88,8.81,1.82,26.05-3,27-4.54-.83-71.2-.83-71.2l-3.64-3.1Z" transform="translate(-82.311 -50.109)"/><path class="b" d="M419.8,149.64a113.679,113.679,0,0,1,32-1.8c.65,18.22.93,50.37,1.11,68.6a5.34,5.34,0,0,1-.7,3.31c-.79,1.06-2.23,1.38-3.53,1.61q-11.37,2-22.86,3.28c-4.72.53-6.36,1.6-7.05-3.37-.53-3.77-.67-7.65-.88-11.45C417.1,194.39,417.81,165,419.8,149.64Z" transform="translate(-82.311 -49.877)"/><path class="z" d="M425.26,220s-1.4-4.08-3.85-5.62l.26-55.27s5.24-4.42,5.43-7.1l17-.91s2.44,3,4.4,3.9l1,55.34s-2.92,4.84-3.7,7.64Z" transform="translate(-82.311 -49.896)"/><path class="h" d="M455.3,173.29a1.79,1.79,0,0,1,.46,1.26,37.671,37.671,0,0,1-.27,8.08,5.42,5.42,0,0,1-.66,2.11.9.9,0,0,1-.22.25c-1,1.17-2.81,1.29-4.39,1.28-8.16,0-16.3.08-24.45.14-.69,0-1.82.09-3,.17h-.31a23.561,23.561,0,0,1-4.76,0,.52.52,0,0,1-.31,0,.55.55,0,0,1-.28,0,2.52,2.52,0,0,1-1.47-.72c-1.13-1.36.43-8.72.6-10.49a3.26,3.26,0,0,1,.43-1.53,2.89,2.89,0,0,1,1.63-1c3.9-1.32,8.15-1.14,12.29-.95,7.87.39,15.77.8,23.69,1.17a1.79,1.79,0,0,1,1.02.23Z" transform="translate(-82.311 -49.58)"/><path class="aa" d="M452.12,185.1l.27-12.17a13.64,13.64,0,0,1,3.15.48c.39.31.61,8.36-.62,10.39s-2.65,2.07-2.65,2.07Z" transform="translate(-82.311 -49.658)"/><path class="ab" d="M454.61,185c-1,1.17-2.81,1.29-4.39,1.28-8.16,0-16.3.08-24.45.14-.69,0-1.82.09-3,.17h-5.34a.55.55,0,0,1-.28,0c-.64,0-1.5-.19-1.47-.72.07-.84,2.64-1.62,2.64-1.62l33.72.28Z" transform="translate(-82.311 -51.144)"/><path class="b" d="M153.64,192.36l-.21-1,1.07-1.54c2.58-3.65,3.7-5.53,3.35-7.41a2.26,2.26,0,0,0-2.95-1.94,4.27,4.27,0,0,0-2.42,1.57l-.78-1.08a5.59,5.59,0,0,1,3.27-2,3.56,3.56,0,0,1,4.52,2.86c.45,2.29-.85,4.47-3,7.51l-.81,1.12h0l5.58-1.09.28,1.39Z" transform="translate(-26.478 -50.994)"/><path class="b" d="M164.19,189.05a7,7,0,0,0,1.34-.32,4.8,4.8,0,0,0,2.36-1.71,5.55,5.55,0,0,0,1-3.63h-.06a3.74,3.74,0,0,1-2.66,1.91,3.67,3.67,0,0,1-4.42-3.08,4.34,4.34,0,0,1,3.37-5.25c2.54-.5,4.52,1.25,5.14,4.43a8,8,0,0,1-1,6.25A6.26,6.26,0,0,1,166,190a7.671,7.671,0,0,1-1.52.4Zm-.8-7.26A2.44,2.44,0,0,0,166.3,184a2.85,2.85,0,0,0,2.19-1.79,1.2,1.2,0,0,0,0-.64c-.42-2.12-1.52-3.59-3.28-3.25-1.4.25-2.21,1.68-1.82,3.47Z" transform="translate(-28.013 -50.571)"/><path class="b" d="M178.87,174.49l.22,1.11L175.9,188l-1.73.34,3.22-12h0l-6.07,1.19L171,176Z" transform="translate(-29.461 -50.079)"/><path class="b" d="M183.07,184.57a5.76,5.76,0,0,0,2.91.24c2.16-.43,2.56-1.94,2.34-3-.36-1.74-2.08-2.17-3.7-1.86l-.94.19-.25-1.26.94-.19c1.22-.24,2.65-1.17,2.36-2.64-.2-1-1-1.75-2.55-1.45a4.75,4.75,0,0,0-2.32,1.31l-.68-1.14a6,6,0,0,1,3-1.59c2.45-.48,3.85.75,4.14,2.26a3.14,3.14,0,0,1-1.71,3.38h0a3.3,3.3,0,0,1,3.41,2.64c.39,2-.82,4-3.8,4.62a6.41,6.41,0,0,1-3.4-.2Z" transform="translate(-31.125 -49.708)"/><g class="ac" transform="translate(264.127 33.95)"><path class="b" d="M343.76,135.9v-9.5c-13-1.05-20.56-8.46-21.64-18.49h9.52c1.41,6.48,6.06,10.24,12.12,11.18V93.81c-14.39-4.17-20-9.39-20-19.1,0-10.55,8.44-17.55,20-18.28v-7.1h6.16v7.2c14.39,1.36,19,10.34,19.69,16.82h-9.3c-1.19-4.28-3.79-8.46-10.39-9.61V86.51c16.56,4.59,21.32,11.27,21.32,20.57,0,11.59-8,18.38-21.32,19.32v9.5Zm0-51.17V63.53c-7.79.63-10.6,5.12-10.6,10.13s2.49,8.34,10.6,11.07Zm6.16,10.86v23.6c7.47-.73,11.47-4.38,11.47-11.17C361.39,102.48,358.9,98.62,349.92,95.59Z" transform="translate(-322.12 -49.33)"/></g><path class="h" d="M346.74,135.18v-9.51c-13-1-20.55-8.45-21.63-18.48h9.52c1.4,6.48,6.05,10.24,12.11,11.18V93.09c-14.38-4.17-20-9.39-20-19.1,0-10.55,8.44-17.55,20-18.28v-7.1h6.17v7.2c14.39,1.36,19,10.34,19.69,16.82h-9.3c-1.2-4.28-3.79-8.46-10.39-9.61V85.79c16.55,4.59,21.31,11.27,21.31,20.57,0,11.59-8,18.38-21.31,19.31v9.51Zm0-51.17V62.81c-7.79.63-10.6,5.12-10.6,10.13s2.49,8.35,10.6,11.06Zm6.17,10.86v23.6c7.47-.73,11.46-4.39,11.46-11.17,0-5.54-2.48-9.4-11.46-12.43Z" transform="translate(-49.509 -25.38)"/><g class="ac" transform="translate(185.444 51.66)"><path class="b" d="M239.28,139.7v-6.14c-8.38-.68-13.27-5.47-14-11.94h6.15a9,9,0,0,0,7.82,7.22V112.51c-9.29-2.69-12.92-6.07-12.92-12.34,0-6.81,5.45-11.33,12.92-11.8V83.78h4v4.66c9.3.87,12.3,6.67,12.72,10.86h-6a7.87,7.87,0,0,0-6.71-6.21v14.7c10.69,3,13.77,7.29,13.77,13.29,0,7.49-5.17,11.87-13.77,12.48v6.14Zm0-33V93c-5,.4-6.85,3.3-6.85,6.54s1.57,5.35,6.85,7.11Zm4,7v15.2c4.83-.47,7.41-2.83,7.41-7.21-.02-3.58-1.63-6.07-7.43-8.03Z" transform="translate(-225.28 -83.78)"/></g><path class="h" d="M241.21,139.23v-6.14c-8.38-.67-13.27-5.46-14-11.94h6.14a9,9,0,0,0,7.83,7.22V112.05c-9.29-2.7-12.93-6.07-12.93-12.34,0-6.81,5.45-11.33,12.93-11.81V83.32h4V88c9.3.88,12.3,6.68,12.72,10.86h-6a7.89,7.89,0,0,0-6.71-6.2v14.7c10.69,3,13.77,7.28,13.77,13.28,0,7.49-5.17,11.88-13.77,12.48v6.14Zm0-33V92.49c-5,.41-6.85,3.31-6.85,6.54s1.64,5.4,6.85,7.15Zm4,7v15.24c4.82-.47,7.41-2.83,7.41-7.22-.02-3.6-1.62-6.1-7.43-8.05Z" transform="translate(-55.158 -33.008)"/><g class="ac" transform="translate(132.96 32.8)"><path class="b" d="M173.79,95.48V90.29c-7.09-.58-11.23-4.63-11.82-10.1h5.2a7.59,7.59,0,0,0,6.62,6.1V72.48c-7.86-2.28-10.94-5.13-10.94-10.44,0-5.76,4.61-9.59,10.94-10V48.18h3.37v3.93c7.86.74,10.4,5.65,10.76,9.19h-5.09a6.66,6.66,0,0,0-5.67-5.25V68.49c9,2.51,11.64,6.16,11.64,11.24,0,6.33-4.37,10-11.64,10.56v5.19Zm0-28V55.94c-4.26.34-5.79,2.79-5.79,5.53s1.36,4.53,5.79,6.05Zm3.37,5.93v12.9c4.08-.4,6.26-2.4,6.26-6.11,0-2.98-1.35-5.09-6.26-6.75Z" transform="translate(-161.97 -48.18)"/></g><path class="h" d="M175.42,95.08V89.89c-7.09-.57-11.23-4.62-11.82-10.1h5.2a7.6,7.6,0,0,0,6.62,6.11V72.09c-7.86-2.28-10.93-5.14-10.93-10.44,0-5.77,4.61-9.59,10.93-10V47.78h3.37v3.94c7.86.74,10.4,5.65,10.76,9.18h-5.08a6.67,6.67,0,0,0-5.68-5.24V68.09c9,2.51,11.65,6.17,11.65,11.25,0,6.33-4.38,10-11.65,10.55v5.19Zm0-27.95V55.54c-4.26.34-5.79,2.8-5.79,5.54s1.37,4.56,5.79,6.05Zm3.37,5.93V86c4.08-.39,6.27-2.39,6.27-6.1,0-3.07-1.36-5.19-6.27-6.84Z" transform="translate(-29.279 -15.38)"/></g></svg>